<svg version="1.1" viewBox="0.0 0.0 960.0 720.0" fill="none" stroke="none" stroke-linecap="square" stroke-miterlimit="10" xmlns:xlink="http://www.w3.org/1999/xlink" xmlns="http://www.w3.org/2000/svg"><clipPath id="p.0"><path d="m0 0l960.0 0l0 720.0l-960.0 0l0 -720.0z" clip-rule="nonzero"/></clipPath><g clip-path="url(#p.0)"><path fill="#000000" fill-opacity="0.0" d="m0 0l960.0 0l0 720.0l-960.0 0z" fill-rule="evenodd"/><path fill="#1c4587" fill-opacity="0.5" d="m69.06543 144.93927l0 0c91.303314 -163.26544 340.7763 -197.487 557.2135 -76.43597l0 0c216.43726 121.05102 317.8783 351.53506 226.57501 514.8005l0 0c-91.303345 163.26544 -340.7763 197.487 -557.2135 76.435974l0 0c-216.43723 -121.051025 -317.8783 -351.53503 -226.57498 -514.8005z" fill-rule="evenodd"/><path fill="#1c4587" fill-opacity="0.5" d="m833.0568 148.28568l0 0c93.85968 161.81027 3.354065 389.61667 -202.1499 508.81985l0 0c-205.50397 119.20325 -448.18613 84.66339 -542.0458 -77.14691l0 0c-93.859634 -161.81024 -3.3540192 -389.61664 202.14993 -508.81985l0 0c205.50397 -119.2032 448.1861 -84.663345 542.0457 77.14691z" fill-rule="evenodd"/><g filter="url(#shadowFilter-p.1)"><use xlink:href="#p.1" transform="matrix(1.0 0.0 0.0 1.0 2.5051157480314963 17.82482519685037)"/></g><defs><filter id="shadowFilter-p.1" filterUnits="userSpaceOnUse"><feGaussianBlur in="SourceAlpha" stdDeviation="3.0" result="blur"/><feComponentTransfer in="blur" color-interpolation-filters="sRGB"><feFuncR type="linear" slope="0" intercept="0.0"/><feFuncG type="linear" slope="0" intercept="0.0"/><feFuncB type="linear" slope="0" intercept="0.0"/><feFuncA type="linear" slope="0.97" intercept="0"/></feComponentTransfer></filter></defs><g id="p.1"><path fill="#000000" fill-opacity="0.0" d="m0 0l960.0 0l0 720.0l-960.0 0z" fill-rule="evenodd"/><path fill="#674ea7" d="m224.14627 331.53125q2.875 2.078125 4.296875 3.0q1.4375 0.90625 2.34375 1.421875q0.921875 0.515625 1.828125 1.296875q0.90625 0.78125 3.0 2.34375q-1.3125 2.875 -1.3125 4.4375q0 1.5625 0.265625 3.0q0.265625 1.421875 0.65625 2.984375q0.390625 1.5625 0.125 4.171875q-14.328125 9.109375 -25.390625 14.453125q-11.0625 5.328125 -21.359375 9.234375q-10.28125 3.90625 -21.359375 7.421875q-11.0625 3.515625 -25.640625 9.25q5.984375 3.640625 15.484375 6.375q9.515625 2.734375 19.015625 6.25q9.515625 3.515625 17.328125 8.734375q7.8125 5.203125 10.40625 13.53125q3.65625 0.265625 6.390625 4.171875q2.734375 3.90625 2.203125 9.109375q-2.59375 1.5625 -4.8125 3.515625q-2.21875 1.953125 -5.59375 3.0q-2.875 0.515625 -7.4375 -0.515625q-4.546875 -1.046875 -9.890625 -2.875q-5.328125 -1.828125 -11.1875 -3.90625q-5.859375 -2.078125 -11.078125 -3.390625q-5.203125 -1.296875 -11.328125 -2.328125q-6.109375 -1.046875 -11.328125 -3.140625q-2.328125 -1.03125 -4.03125 -2.46875q-1.6875 -1.4375 -4.03125 -1.953125q-4.6875 -0.78125 -10.03125 -2.984375q-5.328125 -2.21875 -10.796875 -4.828125q-5.46875 -2.609375 -10.8125 -5.203125q-5.34375 -2.609375 -10.03125 -4.6875q0.265625 -1.5625 -3.390625 -3.90625q-3.640625 -2.34375 -7.796875 -2.609375q0 -3.125 -2.484375 -5.59375q-2.46875 -2.484375 -3.765625 -5.609375q-2.875 -7.28125 2.078125 -13.78125q4.953125 -6.515625 14.84375 -7.828125q3.125 1.046875 4.8125 0.921875q1.703125 -0.140625 4.5625 1.171875q4.6875 -3.125 11.328125 -6.125q6.640625 -3.0 12.890625 -1.6875q0.78125 -2.09375 2.984375 -2.09375q2.21875 0 2.75 -2.34375q10.671875 -1.8125 20.828125 -5.71875q10.15625 -3.90625 19.78125 -8.46875q9.640625 -4.5625 18.625 -9.109375q8.984375 -4.5625 17.3125 -8.203125q3.65625 1.03125 6.78125 -0.140625q3.125 -1.171875 6.5 -0.90625q-0.78125 0.78125 -0.265625 1.046875q0.53125 0.25 1.5625 0.390625q1.046875 0.125 2.21875 0.265625q1.171875 0.125 1.953125 0.90625zm28.910156 114.828125q-1.046875 -1.03125 -1.828125 -2.46875q-0.78125 -1.4375 -1.296875 -3.78125q-3.640625 -4.421875 -5.734375 -10.140625q-2.078125 -5.734375 -2.859375 -11.859375q-0.78125 -6.125 -0.265625 -12.375q0.53125 -6.25 1.828125 -11.71875q0.78125 -2.59375 1.296875 -5.453125q1.3125 -4.953125 2.609375 -9.765625q1.296875 -4.828125 3.90625 -7.953125q-1.046875 -2.859375 0.25 -6.234375q1.3125 -3.390625 2.609375 -6.265625q0.53125 -0.78125 0.78125 -1.421875q0.265625 -0.65625 0.53125 -1.171875q3.125 -9.125 6.109375 -17.578125q3.0 -8.46875 5.859375 -16.28125q5.21875 -14.328125 10.03125 -28.125q4.8125 -13.796875 8.71875 -29.421875q2.09375 -1.5625 3.65625 -2.09375q0.515625 -0.25 1.296875 -0.515625q0.78125 -0.265625 1.828125 -0.265625q5.46875 2.875 12.875 5.34375q7.421875 2.46875 12.640625 2.46875l4.421875 3.90625q3.390625 3.90625 5.859375 8.203125q2.46875 4.296875 1.4375 11.078125q-1.5625 2.34375 -2.609375 2.859375q-1.5625 5.984375 -3.390625 10.546875q-1.8125 4.5625 -3.640625 8.71875q-2.078125 4.6875 -3.90625 9.375q-1.828125 4.6875 -3.125 11.46875q-1.5625 1.8125 -1.953125 3.125q-0.390625 1.296875 -0.90625 2.59375q-0.53125 1.5625 -1.3125 3.265625q-0.78125 1.6875 -2.34375 2.984375q-1.03125 8.078125 -3.125 13.15625q-2.078125 5.078125 -4.15625 10.03125q-3.640625 9.109375 -6.765625 18.09375q-3.125 8.984375 -3.65625 20.4375q3.125 -0.78125 5.734375 -0.78125q3.390625 0 6.515625 1.046875q9.359375 -4.6875 20.421875 -5.734375q11.078125 -1.046875 22.015625 -1.296875q9.109375 0 16.921875 -0.78125q2.609375 1.8125 3.390625 1.953125q0.78125 0.125 2.609375 0.125q0.78125 0 1.5625 0q0.78125 0 2.078125 0.265625q3.640625 3.640625 7.03125 5.078125q3.390625 1.421875 7.296875 2.734375q3.375 1.296875 6.625 2.734375q3.265625 1.421875 6.390625 3.765625l2.34375 13.28125q2.078125 2.875 1.828125 3.90625q0 2.09375 -1.046875 3.65625l0.515625 3.375q-4.9375 1.046875 -6.5 2.21875q-1.5625 1.171875 -3.390625 3.0q-2.859375 0.25 -5.46875 0.25q-5.203125 0 -10.671875 1.5625q-7.8125 -2.859375 -17.1875 -2.859375q-3.65625 0 -7.4375 0.265625q-3.765625 0.25 -7.40625 0.78125q-3.90625 0.515625 -7.8125 0.90625q-3.90625 0.390625 -7.8125 0.390625q-3.125 0.515625 -4.4375 0.78125q-1.296875 0.265625 -2.59375 0.78125q-8.859375 2.859375 -19.140625 5.71875q-10.28125 2.875 -20.703125 2.875q-15.359375 0 -24.734375 -7.8125q-1.046875 -2.34375 -1.578125 -3.125q-0.515625 -0.78125 -1.03125 -1.828125zm148.69131 -52.078125q0 -2.859375 0.78125 -5.203125q0.78125 -2.34375 0.265625 -5.984375q8.0625 -17.1875 18.34375 -31.90625q10.296875 -14.71875 24.625 -25.90625q2.34375 -1.828125 3.765625 -3.78125q1.4375 -1.953125 2.859375 -3.765625q1.4375 -1.828125 3.265625 -3.265625q1.828125 -1.4375 4.6875 -1.953125q6.515625 -7.546875 15.625 -13.796875q9.109375 -6.25 19.0 -11.984375q9.90625 -5.734375 19.921875 -11.71875q10.03125 -5.984375 18.109375 -13.015625q2.859375 1.8125 4.546875 1.171875q1.703125 -0.65625 3.515625 -0.140625q2.34375 4.953125 6.125 6.90625q3.78125 1.953125 7.8125 3.90625q4.03125 1.953125 7.546875 4.6875q3.515625 2.734375 5.34375 7.421875q-1.828125 0 -1.703125 1.3125q0.140625 1.296875 0.65625 2.859375q0.53125 1.5625 0.53125 2.859375q0 1.296875 -2.34375 1.296875q0 1.828125 1.8125 1.828125q1.828125 0 1.828125 1.828125q0 1.5625 -0.65625 2.46875q-0.640625 0.90625 -0.125 3.0q-6.25 4.15625 -13.9375 7.9375q-7.671875 3.78125 -16.140625 7.953125q-8.46875 4.15625 -17.1875 8.984375q-8.71875 4.8125 -17.3125 11.0625q-8.59375 6.25 -17.328125 13.796875q-8.71875 7.546875 -16.796875 16.015625q-8.0625 8.46875 -15.09375 17.453125q-7.03125 8.96875 -11.984375 17.5625q0.53125 1.3125 1.4375 2.359375q0.90625 1.03125 1.4375 2.328125q9.890625 0.53125 18.484375 -0.125q8.59375 -0.65625 17.1875 1.171875q1.03125 -0.78125 1.296875 -2.078125q0.265625 -1.3125 1.5625 -1.828125q17.703125 -1.828125 33.0625 -5.859375q15.375 -4.03125 31.265625 -8.203125q-4.6875 -1.828125 -8.34375 -2.859375q-1.5625 -1.5625 0.125 -2.734375q1.703125 -1.171875 2.75 -2.46875q-4.171875 -2.34375 -6.90625 -6.25q-2.734375 -3.90625 -3.25 -10.15625q1.8125 -1.5625 1.8125 -3.640625q0 -2.09375 -1.8125 -3.390625q-1.3125 -0.53125 -1.578125 0q-0.25 0.515625 -0.390625 1.046875q-0.125 0.515625 -0.515625 1.03125q-0.390625 0.515625 -1.421875 0q0.25 -2.859375 1.296875 -4.6875q1.046875 -1.828125 1.5625 -4.421875l21.609375 -14.328125q3.390625 2.609375 8.328125 5.46875q4.953125 2.859375 10.421875 5.734375q5.46875 2.859375 11.203125 5.859375q5.734375 2.984375 10.671875 5.859375q4.6875 2.078125 8.0625 5.078125q3.390625 2.984375 6.515625 6.25q3.125 3.25 6.25 6.375q3.125 3.125 7.5625 5.203125q-0.53125 4.171875 0.515625 6.78125q1.046875 2.59375 0.515625 6.234375q-4.9375 8.859375 -11.96875 14.984375q-7.03125 6.109375 -15.765625 10.546875q-8.71875 4.421875 -18.609375 7.421875q-9.890625 2.984375 -20.3125 5.71875q-10.421875 2.734375 -20.96875 5.734375q-10.546875 3.0 -20.703125 6.90625q-4.421875 0 -7.546875 0.265625q-3.125 0.25 -6.0 0.78125q-2.859375 0.515625 -5.71875 1.03125q-2.859375 0.515625 -6.25 0.78125q-1.296875 -0.265625 -1.6875 0.515625q-0.390625 0.78125 -1.171875 1.3125q-5.21875 0.78125 -9.390625 0.78125q-4.15625 0 -7.015625 0q-3.640625 0 -7.546875 1.046875q-3.90625 1.03125 -7.296875 0.765625q-23.4375 -1.03125 -36.71875 -16.65625q-13.28125 -15.625 -14.578125 -42.96875q0.25 -1.3125 -0.53125 -1.703125q-0.78125 -0.390625 -1.296875 -0.90625zm285.924 -84.375q4.6875 -3.375 10.15625 -11.0625q5.46875 -7.6875 11.578125 -15.234375q6.125 -7.546875 12.5 -13.140625q6.390625 -5.609375 12.90625 -4.828125q4.15625 9.375 4.421875 18.625q0.265625 9.234375 -1.828125 20.953125q-2.34375 2.875 -6.765625 7.828125q-4.421875 4.9375 -9.765625 11.0625q-5.34375 6.109375 -11.078125 12.625q-5.71875 6.515625 -10.796875 12.5q-5.078125 5.984375 -8.859375 10.9375q-3.765625 4.953125 -5.078125 7.8125q-3.640625 3.90625 -9.765625 10.9375q-6.109375 7.03125 -12.625 14.84375q-6.5 7.8125 -12.625 15.234375q-6.125 7.421875 -10.03125 12.359375q-0.25 1.3125 0.78125 2.359375q1.046875 1.03125 1.5625 2.328125q-2.859375 2.609375 -3.390625 4.828125q-0.515625 2.203125 -0.25 4.546875q0.265625 2.34375 0.78125 4.5625q0.515625 2.21875 0.265625 4.8125q-1.828125 1.5625 -3.0 3.65625q-1.171875 2.078125 -2.34375 4.03125q-1.171875 1.953125 -2.875 3.765625q-1.6875 1.828125 -4.28125 3.140625q-5.46875 -0.53125 -8.859375 -1.4375q-3.390625 -0.90625 -8.078125 -1.6875q-4.421875 -3.65625 -5.984375 -8.984375q-1.5625 -5.34375 -1.421875 -10.9375q0.125 -5.609375 1.296875 -11.203125q1.171875 -5.59375 2.46875 -9.765625q2.859375 -1.828125 0.265625 -2.609375q1.03125 -3.640625 3.640625 -6.109375q2.609375 -2.484375 2.609375 -4.296875q1.8125 -2.875 7.015625 -8.71875q5.21875 -5.859375 11.328125 -12.625q6.125 -6.78125 11.859375 -13.15625q5.734375 -6.390625 8.859375 -10.03125q1.5625 -4.171875 7.15625 -10.8125q5.59375 -6.640625 11.71875 -13.671875q6.125 -7.03125 11.1875 -13.28125q5.078125 -6.25 5.34375 -10.15625zm177.60522 63.8125q0 3.125 2.46875 5.59375q2.46875 2.46875 3.78125 5.59375q1.5625 3.65625 0.90625 7.296875q-0.65625 3.640625 -3.0 6.515625q-2.34375 2.859375 -6.125 4.9375q-3.765625 2.078125 -8.71875 2.859375q-3.125 -1.296875 -4.8125 -1.03125q-1.6875 0.25 -4.5625 -1.046875q-4.6875 3.125 -11.328125 6.125q-6.640625 2.984375 -12.890625 1.6875q-0.78125 2.078125 -3.0 2.078125q-2.203125 0 -2.71875 2.34375q-10.6875 1.828125 -20.84375 5.734375q-10.140625 3.90625 -19.78125 8.46875q-9.640625 4.546875 -18.625 9.234375q-8.984375 4.6875 -17.3125 8.078125q-3.640625 -1.046875 -6.765625 0.125q-3.125 1.171875 -6.515625 0.921875q0.78125 -0.78125 0.25 -1.046875q-0.515625 -0.265625 -1.5625 -0.390625q-1.03125 -0.125 -2.203125 -0.25q-1.171875 -0.140625 -1.953125 -0.921875q-2.859375 -1.828125 -4.296875 -2.859375q-1.4375 -1.046875 -2.34375 -1.5625q-0.90625 -0.53125 -1.953125 -1.3125q-1.046875 -0.78125 -2.859375 -2.34375q1.03125 -2.59375 1.171875 -4.28125q0.125 -1.703125 -0.125 -3.125q-0.265625 -1.4375 -0.65625 -3.0q-0.390625 -1.5625 -0.140625 -4.171875q14.328125 -9.109375 25.265625 -14.453125q10.9375 -5.34375 21.34375 -9.25q10.421875 -3.90625 21.484375 -7.421875q11.078125 -3.515625 25.65625 -9.234375q-5.984375 -3.390625 -15.5 -6.25q-9.5 -2.859375 -19.0 -6.375q-9.5 -3.515625 -17.3125 -8.71875q-7.8125 -5.21875 -10.421875 -13.546875q-3.640625 -0.265625 -6.375 -4.171875q-2.734375 -3.90625 -2.21875 -9.109375q2.609375 -1.5625 4.8125 -3.515625q2.21875 -1.953125 5.609375 -3.0q2.859375 -0.515625 7.40625 0.53125q4.5625 1.03125 9.90625 2.859375q5.34375 1.8125 11.203125 3.90625q5.859375 2.078125 11.0625 3.375q5.203125 1.3125 11.3125 2.359375q6.125 1.03125 11.34375 3.109375q2.34375 1.046875 4.03125 2.484375q1.6875 1.421875 4.03125 1.953125q4.6875 0.78125 10.03125 3.0q5.34375 2.203125 10.8125 4.8125q5.46875 2.59375 10.796875 5.328125q5.34375 2.734375 10.03125 4.5625q-0.265625 1.5625 3.375 3.90625q3.65625 2.34375 7.828125 2.609375z" fill-rule="nonzero"/></g></g></svg>